<mxfile host="app.diagrams.net" modified="2023-12-19T22:15:44.935Z" agent="Mozilla/5.0 (Macintosh; Intel Mac OS X 10_15_7) AppleWebKit/537.36 (KHTML, like Gecko) Chrome/120.0.0.0 Safari/537.36" etag="YLq7nVoIx-6Gt27_0XFO" version="22.1.11" type="device">
  <diagram name="Page-1" id="z2uosBjwDsRnEWyhbzkw">
    <mxGraphModel dx="1643" dy="1116" grid="1" gridSize="10" guides="1" tooltips="1" connect="1" arrows="1" fold="1" page="1" pageScale="1" pageWidth="1654" pageHeight="1169" background="#FFFFFF" math="0" shadow="0">
      <root>
        <mxCell id="0" />
        <mxCell id="1" parent="0" />
        <mxCell id="170oF1ZMzqkDV3Dwospg-79" value="" style="group;fontSize=12;" vertex="1" connectable="0" parent="1">
          <mxGeometry x="80" y="120" width="1400" height="680" as="geometry" />
        </mxCell>
        <mxCell id="170oF1ZMzqkDV3Dwospg-33" value="" style="group" vertex="1" connectable="0" parent="170oF1ZMzqkDV3Dwospg-79">
          <mxGeometry width="495.57522123893807" height="552.5" as="geometry" />
        </mxCell>
        <mxCell id="170oF1ZMzqkDV3Dwospg-27" value="&lt;font style=&quot;font-size: 18px;&quot;&gt;The&amp;nbsp;OSI model&lt;/font&gt;" style="text;html=1;strokeColor=none;fillColor=none;align=left;verticalAlign=middle;whiteSpace=wrap;rounded=0;fontSize=16;fontStyle=1" vertex="1" parent="170oF1ZMzqkDV3Dwospg-33">
          <mxGeometry width="278.0056119145262" height="42.5" as="geometry" />
        </mxCell>
        <mxCell id="170oF1ZMzqkDV3Dwospg-32" value="" style="group" vertex="1" connectable="0" parent="170oF1ZMzqkDV3Dwospg-33">
          <mxGeometry y="56.66666666666667" width="495.57522123893807" height="495.83333333333337" as="geometry" />
        </mxCell>
        <mxCell id="170oF1ZMzqkDV3Dwospg-28" value="" style="group" vertex="1" connectable="0" parent="170oF1ZMzqkDV3Dwospg-32">
          <mxGeometry width="60.4360025901144" height="495.83333333333337" as="geometry" />
        </mxCell>
        <mxCell id="170oF1ZMzqkDV3Dwospg-2" value="7" style="rounded=0;whiteSpace=wrap;html=1;fontSize=16;" vertex="1" parent="170oF1ZMzqkDV3Dwospg-28">
          <mxGeometry width="60.4360025901144" height="70.83333333333333" as="geometry" />
        </mxCell>
        <mxCell id="170oF1ZMzqkDV3Dwospg-5" value="6" style="rounded=0;whiteSpace=wrap;html=1;fontSize=16;" vertex="1" parent="170oF1ZMzqkDV3Dwospg-28">
          <mxGeometry y="70.83333333333333" width="60.4360025901144" height="70.83333333333333" as="geometry" />
        </mxCell>
        <mxCell id="170oF1ZMzqkDV3Dwospg-7" value="5" style="rounded=0;whiteSpace=wrap;html=1;fontSize=16;" vertex="1" parent="170oF1ZMzqkDV3Dwospg-28">
          <mxGeometry y="141.66666666666666" width="60.4360025901144" height="70.83333333333333" as="geometry" />
        </mxCell>
        <mxCell id="170oF1ZMzqkDV3Dwospg-9" value="4" style="rounded=0;whiteSpace=wrap;html=1;fontSize=16;" vertex="1" parent="170oF1ZMzqkDV3Dwospg-28">
          <mxGeometry y="212.5" width="60.4360025901144" height="70.83333333333333" as="geometry" />
        </mxCell>
        <mxCell id="170oF1ZMzqkDV3Dwospg-11" value="3" style="rounded=0;whiteSpace=wrap;html=1;fontSize=16;" vertex="1" parent="170oF1ZMzqkDV3Dwospg-28">
          <mxGeometry y="283.3333333333333" width="60.4360025901144" height="70.83333333333333" as="geometry" />
        </mxCell>
        <mxCell id="170oF1ZMzqkDV3Dwospg-13" value="2" style="rounded=0;whiteSpace=wrap;html=1;fontSize=16;" vertex="1" parent="170oF1ZMzqkDV3Dwospg-28">
          <mxGeometry y="354.1666666666667" width="60.4360025901144" height="70.83333333333333" as="geometry" />
        </mxCell>
        <mxCell id="170oF1ZMzqkDV3Dwospg-16" value="1" style="rounded=0;whiteSpace=wrap;html=1;fontSize=16;" vertex="1" parent="170oF1ZMzqkDV3Dwospg-28">
          <mxGeometry y="425" width="60.4360025901144" height="70.83333333333333" as="geometry" />
        </mxCell>
        <mxCell id="170oF1ZMzqkDV3Dwospg-30" value="" style="group;fontSize=12;" vertex="1" connectable="0" parent="170oF1ZMzqkDV3Dwospg-32">
          <mxGeometry x="60.4360025901144" width="217.5696093244118" height="495.83333333333337" as="geometry" />
        </mxCell>
        <mxCell id="170oF1ZMzqkDV3Dwospg-3" value="Application Layer" style="rounded=0;whiteSpace=wrap;html=1;fontSize=18;align=left;spacingLeft=25;" vertex="1" parent="170oF1ZMzqkDV3Dwospg-30">
          <mxGeometry width="217.5696093244118" height="70.83333333333333" as="geometry" />
        </mxCell>
        <mxCell id="170oF1ZMzqkDV3Dwospg-4" value="Presentation Layer" style="rounded=0;whiteSpace=wrap;html=1;fontSize=18;align=left;spacingLeft=25;" vertex="1" parent="170oF1ZMzqkDV3Dwospg-30">
          <mxGeometry y="70.83333333333333" width="217.5696093244118" height="70.83333333333333" as="geometry" />
        </mxCell>
        <mxCell id="170oF1ZMzqkDV3Dwospg-6" value="Session Layer" style="rounded=0;whiteSpace=wrap;html=1;fontSize=18;align=left;spacingLeft=25;" vertex="1" parent="170oF1ZMzqkDV3Dwospg-30">
          <mxGeometry y="141.66666666666666" width="217.5696093244118" height="70.83333333333333" as="geometry" />
        </mxCell>
        <mxCell id="170oF1ZMzqkDV3Dwospg-8" value="Transport Layer" style="rounded=0;whiteSpace=wrap;html=1;fontSize=18;align=left;spacingLeft=25;" vertex="1" parent="170oF1ZMzqkDV3Dwospg-30">
          <mxGeometry y="212.5" width="217.5696093244118" height="70.83333333333333" as="geometry" />
        </mxCell>
        <mxCell id="170oF1ZMzqkDV3Dwospg-10" value="Network Layer" style="rounded=0;whiteSpace=wrap;html=1;fontSize=18;align=left;spacingLeft=25;" vertex="1" parent="170oF1ZMzqkDV3Dwospg-30">
          <mxGeometry y="283.3333333333333" width="217.5696093244118" height="70.83333333333333" as="geometry" />
        </mxCell>
        <mxCell id="170oF1ZMzqkDV3Dwospg-12" value="Datalink Layer" style="rounded=0;whiteSpace=wrap;html=1;fontSize=18;align=left;spacingLeft=25;" vertex="1" parent="170oF1ZMzqkDV3Dwospg-30">
          <mxGeometry y="354.1666666666667" width="217.5696093244118" height="70.83333333333333" as="geometry" />
        </mxCell>
        <mxCell id="170oF1ZMzqkDV3Dwospg-15" value="Physical Layer" style="rounded=0;whiteSpace=wrap;html=1;fontSize=18;align=left;spacingLeft=25;" vertex="1" parent="170oF1ZMzqkDV3Dwospg-30">
          <mxGeometry y="425" width="217.5696093244118" height="70.83333333333333" as="geometry" />
        </mxCell>
        <mxCell id="170oF1ZMzqkDV3Dwospg-31" value="" style="group" vertex="1" connectable="0" parent="170oF1ZMzqkDV3Dwospg-32">
          <mxGeometry x="278.0053097345133" width="205.18053097345137" height="354.1666666666667" as="geometry" />
        </mxCell>
        <mxCell id="170oF1ZMzqkDV3Dwospg-17" value="HTTP" style="rounded=0;whiteSpace=wrap;html=1;fontSize=18;align=center;spacingLeft=0;fontStyle=1;strokeColor=#1CD760;strokeWidth=3;" vertex="1" parent="170oF1ZMzqkDV3Dwospg-31">
          <mxGeometry width="205.1805309734514" height="70.83333333333333" as="geometry" />
        </mxCell>
        <mxCell id="170oF1ZMzqkDV3Dwospg-24" value="TCP / UDP" style="rounded=0;whiteSpace=wrap;html=1;fontSize=18;align=center;spacingLeft=0;fontStyle=1;strokeColor=#1CD760;strokeWidth=3;" vertex="1" parent="170oF1ZMzqkDV3Dwospg-31">
          <mxGeometry y="212.5" width="205.1805309734514" height="70.83333333333333" as="geometry" />
        </mxCell>
        <mxCell id="170oF1ZMzqkDV3Dwospg-25" value="Packets" style="rounded=0;whiteSpace=wrap;html=1;fontSize=18;align=center;spacingLeft=0;fontStyle=1;strokeColor=#1CD760;strokeWidth=3;" vertex="1" parent="170oF1ZMzqkDV3Dwospg-31">
          <mxGeometry y="283.3333333333333" width="205.1805309734514" height="70.83333333333333" as="geometry" />
        </mxCell>
        <mxCell id="170oF1ZMzqkDV3Dwospg-41" value="" style="group" vertex="1" connectable="0" parent="170oF1ZMzqkDV3Dwospg-79">
          <mxGeometry x="470.79646017699116" width="446.01769911504425" height="410.83333333333337" as="geometry" />
        </mxCell>
        <mxCell id="170oF1ZMzqkDV3Dwospg-22" value="What to protect and accelerate*:" style="text;html=1;strokeColor=none;fillColor=none;align=left;verticalAlign=middle;whiteSpace=wrap;rounded=0;fontSize=18;fontStyle=1" vertex="1" parent="170oF1ZMzqkDV3Dwospg-41">
          <mxGeometry width="446.01769911504425" height="42.5" as="geometry" />
        </mxCell>
        <mxCell id="170oF1ZMzqkDV3Dwospg-34" value="" style="group;fontSize=14;" vertex="1" connectable="0" parent="170oF1ZMzqkDV3Dwospg-41">
          <mxGeometry y="56.66666666666667" width="446.01769911504425" height="354.1666666666667" as="geometry" />
        </mxCell>
        <mxCell id="170oF1ZMzqkDV3Dwospg-20" value="Websites / Web applications / API endpoints" style="rounded=1;whiteSpace=wrap;html=1;fontSize=16;" vertex="1" parent="170oF1ZMzqkDV3Dwospg-34">
          <mxGeometry width="446.01769911504425" height="70.83333333333333" as="geometry" />
        </mxCell>
        <mxCell id="170oF1ZMzqkDV3Dwospg-23" value="SSL VPN / FTP / RDP / SMTP /&amp;nbsp;VoIP" style="rounded=1;whiteSpace=wrap;html=1;fontSize=16;" vertex="1" parent="170oF1ZMzqkDV3Dwospg-34">
          <mxGeometry y="212.5" width="446.01769911504425" height="70.83333333333333" as="geometry" />
        </mxCell>
        <mxCell id="170oF1ZMzqkDV3Dwospg-26" value="IP Prefix / CIDR / Network" style="rounded=1;whiteSpace=wrap;html=1;fontSize=16;" vertex="1" parent="170oF1ZMzqkDV3Dwospg-34">
          <mxGeometry y="283.3333333333333" width="446.01769911504425" height="70.83333333333333" as="geometry" />
        </mxCell>
        <mxCell id="170oF1ZMzqkDV3Dwospg-67" value="*some examples&lt;br style=&quot;font-size: 12px;&quot;&gt;**non-exhaustive list of solutions" style="text;html=1;strokeColor=none;fillColor=none;align=left;verticalAlign=middle;whiteSpace=wrap;rounded=0;fontSize=12;fontStyle=2" vertex="1" parent="170oF1ZMzqkDV3Dwospg-79">
          <mxGeometry y="590" width="408.8495575221239" height="42.5" as="geometry" />
        </mxCell>
        <mxCell id="170oF1ZMzqkDV3Dwospg-69" value="" style="group" vertex="1" connectable="0" parent="170oF1ZMzqkDV3Dwospg-79">
          <mxGeometry x="904.424778761062" width="495.57522123893807" height="410.83333333333337" as="geometry" />
        </mxCell>
        <mxCell id="170oF1ZMzqkDV3Dwospg-35" value="&lt;font color=&quot;#f3801f&quot; style=&quot;font-size: 18px;&quot;&gt;Cloudflare solutions**:&lt;/font&gt;" style="text;html=1;strokeColor=none;fillColor=none;align=left;verticalAlign=middle;whiteSpace=wrap;rounded=0;fontSize=18;fontStyle=1" vertex="1" parent="170oF1ZMzqkDV3Dwospg-69">
          <mxGeometry width="495.57522123893807" height="42.5" as="geometry" />
        </mxCell>
        <mxCell id="170oF1ZMzqkDV3Dwospg-68" value="" style="group;strokeColor=none;fontSize=18;" vertex="1" connectable="0" parent="170oF1ZMzqkDV3Dwospg-69">
          <mxGeometry y="56.66666666666667" width="495.57522123893807" height="354.1666666666667" as="geometry" />
        </mxCell>
        <mxCell id="170oF1ZMzqkDV3Dwospg-40" value="WAF, Bot Management, API Gateway, Page Shield" style="rounded=1;whiteSpace=wrap;html=1;fontSize=18;fontStyle=1;strokeColor=#F3801F;strokeWidth=3;" vertex="1" parent="170oF1ZMzqkDV3Dwospg-68">
          <mxGeometry width="495.57522123893807" height="70.83333333333333" as="geometry" />
        </mxCell>
        <mxCell id="170oF1ZMzqkDV3Dwospg-42" value="Spectrum" style="rounded=1;whiteSpace=wrap;html=1;fontSize=18;fontStyle=1;strokeColor=#F3801F;strokeWidth=3;" vertex="1" parent="170oF1ZMzqkDV3Dwospg-68">
          <mxGeometry y="212.5" width="495.57522123893807" height="70.83333333333333" as="geometry" />
        </mxCell>
        <mxCell id="170oF1ZMzqkDV3Dwospg-43" value="Magic Transit, Magic Firewall" style="rounded=1;whiteSpace=wrap;html=1;fontSize=18;fontStyle=1;strokeColor=#F3801F;strokeWidth=3;" vertex="1" parent="170oF1ZMzqkDV3Dwospg-68">
          <mxGeometry y="283.3333333333333" width="495.57522123893807" height="70.83333333333333" as="geometry" />
        </mxCell>
      </root>
    </mxGraphModel>
  </diagram>
</mxfile>
